<svg xmlns="http://www.w3.org/2000/svg" width="340" height="228" viewBox="0 0 340 228"><style>* {
          font-family: Ubuntu, 'Lucida Grande', Arial, Helvetica, sans-serif
        }</style><rect x="1.5" y="1.5" rx="5" ry="5" height="98%" width="98%" stroke="#e4e2e2" stroke-width="1" fill="#ffffff" stroke-opacity="1"></rect><text x="30" y="40" style="font-size: 26px; fill: #41b883;">Topics Perfer:</text><g transform="translate(0,40)"><g transform="translate(30,20)"><g transform="translate(0,2)" width="14" height="14" fill="#41b883"><path fill-rule="evenodd" d="M2.5 7.775V2.75a.25.25 0 01.25-.25h5.025a.25.25 0 01.177.073l6.25 6.25a.25.25 0 010 .354l-5.025 5.025a.25.25 0 01-.354 0l-6.25-6.25a.25.25 0 01-.073-.177zm-1.5 0V2.75C1 1.784 1.784 1 2.75 1h5.025c.464 0 .91.184 1.238.513l6.25 6.25a1.75 1.75 0 010 2.474l-5.026 5.026a1.75 1.75 0 01-2.474 0l-6.25-6.25A1.75 1.75 0 011 7.775zM6 5a1 1 0 100 2 1 1 0 000-2z"></path></g><g transform="translate(0,27.2)" width="14" height="14" fill="#41b883"><path fill-rule="evenodd" d="M2.5 7.775V2.75a.25.25 0 01.25-.25h5.025a.25.25 0 01.177.073l6.25 6.25a.25.25 0 010 .354l-5.025 5.025a.25.25 0 01-.354 0l-6.25-6.25a.25.25 0 01-.073-.177zm-1.5 0V2.75C1 1.784 1.784 1 2.75 1h5.025c.464 0 .91.184 1.238.513l6.25 6.25a1.75 1.75 0 010 2.474l-5.026 5.026a1.75 1.75 0 01-2.474 0l-6.25-6.25A1.75 1.75 0 011 7.775zM6 5a1 1 0 100 2 1 1 0 000-2z"></path></g><g transform="translate(0,52.4)" width="14" height="14" fill="#41b883"><path fill-rule="evenodd" d="M2.5 7.775V2.75a.25.25 0 01.25-.25h5.025a.25.25 0 01.177.073l6.25 6.25a.25.25 0 010 .354l-5.025 5.025a.25.25 0 01-.354 0l-6.25-6.25a.25.25 0 01-.073-.177zm-1.5 0V2.75C1 1.784 1.784 1 2.75 1h5.025c.464 0 .91.184 1.238.513l6.25 6.25a1.75 1.75 0 010 2.474l-5.026 5.026a1.75 1.75 0 01-2.474 0l-6.25-6.25A1.75 1.75 0 011 7.775zM6 5a1 1 0 100 2 1 1 0 000-2z"></path></g><g transform="translate(0,77.60000000000001)" width="14" height="14" fill="#41b883"><path fill-rule="evenodd" d="M2.5 7.775V2.75a.25.25 0 01.25-.25h5.025a.25.25 0 01.177.073l6.25 6.25a.25.25 0 010 .354l-5.025 5.025a.25.25 0 01-.354 0l-6.25-6.25a.25.25 0 01-.073-.177zm-1.5 0V2.75C1 1.784 1.784 1 2.75 1h5.025c.464 0 .91.184 1.238.513l6.25 6.25a1.75 1.75 0 010 2.474l-5.026 5.026a1.75 1.75 0 01-2.474 0l-6.25-6.25A1.75 1.75 0 011 7.775zM6 5a1 1 0 100 2 1 1 0 000-2z"></path></g><g transform="translate(0,102.8)" width="14" height="14" fill="#41b883"><path fill-rule="evenodd" d="M2.5 7.775V2.75a.25.25 0 01.25-.25h5.025a.25.25 0 01.177.073l6.25 6.25a.25.25 0 010 .354l-5.025 5.025a.25.25 0 01-.354 0l-6.25-6.25a.25.25 0 01-.073-.177zm-1.5 0V2.75C1 1.784 1.784 1 2.75 1h5.025c.464 0 .91.184 1.238.513l6.25 6.25a1.75 1.75 0 010 2.474l-5.026 5.026a1.75 1.75 0 01-2.474 0l-6.25-6.25A1.75 1.75 0 011 7.775zM6 5a1 1 0 100 2 1 1 0 000-2z"></path></g><g transform="translate(0,128)" width="14" height="14" fill="#41b883"><path fill-rule="evenodd" d="M2.5 7.775V2.75a.25.25 0 01.25-.25h5.025a.25.25 0 01.177.073l6.25 6.25a.25.25 0 010 .354l-5.025 5.025a.25.25 0 01-.354 0l-6.25-6.25a.25.25 0 01-.073-.177zm-1.5 0V2.75C1 1.784 1.784 1 2.75 1h5.025c.464 0 .91.184 1.238.513l6.25 6.25a1.75 1.75 0 010 2.474l-5.026 5.026a1.75 1.75 0 01-2.474 0l-6.25-6.25A1.75 1.75 0 011 7.775zM6 5a1 1 0 100 2 1 1 0 000-2z"></path></g><text x="-340" y="14" style="fill: #000000; font-size: 14px;">Typescript<animate attributeName="x" from="-340" to="21" dur="0.3s" fill="freeze" begin="0"></animate></text><text x="-340" y="39.2" style="fill: #000000; font-size: 14px;">Golang<animate attributeName="x" from="-340" to="21" dur="0.3s" fill="freeze" begin="0.1"></animate></text><text x="-340" y="64.4" style="fill: #000000; font-size: 14px;">Graphql<animate attributeName="x" from="-340" to="21" dur="0.3s" fill="freeze" begin="0.2"></animate></text><text x="-340" y="89.60000000000001" style="fill: #000000; font-size: 14px;">Mongodb<animate attributeName="x" from="-340" to="21" dur="0.3s" fill="freeze" begin="0.30000000000000004"></animate></text><text x="-340" y="114.8" style="fill: #000000; font-size: 14px;">Unity<animate attributeName="x" from="-340" to="21" dur="0.3s" fill="freeze" begin="0.4"></animate></text><text x="-340" y="140" style="fill: #000000; font-size: 14px;">Webapplication<animate attributeName="x" from="-340" to="21" dur="0.3s" fill="freeze" begin="0.5"></animate></text><text x="-340" y="14" style="fill: #000000; font-size: 14px;">5<animate attributeName="x" from="-340" to="130" dur="0.3s" fill="freeze" begin="0"></animate></text><text x="-340" y="39.2" style="fill: #000000; font-size: 14px;">3<animate attributeName="x" from="-340" to="130" dur="0.3s" fill="freeze" begin="0.1"></animate></text><text x="-340" y="64.4" style="fill: #000000; font-size: 14px;">2<animate attributeName="x" from="-340" to="130" dur="0.3s" fill="freeze" begin="0.2"></animate></text><text x="-340" y="89.60000000000001" style="fill: #000000; font-size: 14px;">2<animate attributeName="x" from="-340" to="130" dur="0.3s" fill="freeze" begin="0.30000000000000004"></animate></text><text x="-340" y="114.8" style="fill: #000000; font-size: 14px;">1<animate attributeName="x" from="-340" to="130" dur="0.3s" fill="freeze" begin="0.4"></animate></text><text x="-340" y="140" style="fill: #000000; font-size: 14px;">1<animate attributeName="x" from="-340" to="130" dur="0.3s" fill="freeze" begin="0.5"></animate></text></g><g transform="translate(220,20)"><g transform="scale(6)" style="fill: #41b883;"><path fill-rule="evenodd" d="M8 0C3.58 0 0 3.58 0 8c0 3.54 2.29 6.53 5.47 7.59.4.07.55-.17.55-.38 0-.19-.01-.82-.01-1.49-2.01.37-2.53-.49-2.69-.94-.09-.23-.48-.94-.82-1.13-.28-.15-.68-.52-.01-.53.63-.01 1.08.58 1.23.82.72 1.21 1.87.87 2.33.66.07-.52.28-.87.51-1.07-1.78-.2-3.64-.89-3.64-3.95 0-.87.31-1.59.82-2.15-.08-.2-.36-1.02.08-2.12 0 0 .67-.21 2.2.82.64-.18 1.32-.27 2-.27.68 0 1.36.09 2 .27 1.53-1.04 2.2-.82 2.2-.82.44 1.1.16 1.92.08 2.12.51.56.82 1.27.82 2.15 0 3.07-1.87 3.75-3.65 3.95.29.25.54.73.54 1.48 0 1.07-.01 1.93-.01 2.2 0 .21.15.46.55.38A8.013 8.013 0 0016 8c0-4.42-3.58-8-8-8z"></path></g></g></g></svg>