<svg xmlns="http://www.w3.org/2000/svg" width="638" height="210" viewBox="0 0 638 210"><style>* {
          font-family: Ubuntu, 'Lucida Grande', Arial, Helvetica, sans-serif
        }</style><rect x="1.5" y="1.5" rx="5" ry="5" height="98%" width="98%" stroke="#073642" stroke-width="1" fill="#073642" stroke-opacity="1"></rect><text x="30" y="40" style="font-size: 26px; fill: #268bd2;">Repo Composed</text><g transform="translate(0,40)"><g><rect fill="#3178c6" x="38" y="22" width="0" height="18" rx="10" ry="10"><animate attributeName="width" from="0" to="454" dur="0.6s" fill="freeze" begin="0"></animate></rect><rect fill="#f1e05a" x="38" y="42" width="0" height="18" rx="10" ry="10"><animate attributeName="width" from="0" to="257.6756756756757" dur="0.6s" fill="freeze" begin="0.2"></animate></rect><rect fill="#00ADD8" x="38" y="62" width="0" height="18" rx="10" ry="10"><animate attributeName="width" from="0" to="257.6756756756757" dur="0.6s" fill="freeze" begin="0.4"></animate></rect><rect fill="#178600" x="38" y="82" width="0" height="18" rx="10" ry="10"><animate attributeName="width" from="0" to="134.972972972973" dur="0.6s" fill="freeze" begin="0.6000000000000001"></animate></rect><rect fill="#f34b7d" x="38" y="102" width="0" height="18" rx="10" ry="10"><animate attributeName="width" from="0" to="61.351351351351354" dur="0.6s" fill="freeze" begin="0.8"></animate></rect><rect fill="#000080" x="38" y="122" width="0" height="18" rx="10" ry="10"><animate attributeName="width" from="0" to="61.351351351351354" dur="0.6s" fill="freeze" begin="1"></animate></rect></g><g text-anchor="end" font-family="sans-serif" font-size="14"><text x="0" y="31" dy="0.35em" dx="-4" style="stroke: #073642; stroke-width: 3px;">TypeScript<animate attributeName="x" from="0" to="492" dur="0.6s" fill="freeze" begin="0"></animate></text><text x="0" y="51" dy="0.35em" dx="-4" style="stroke: #073642; stroke-width: 3px;">JavaScript<animate attributeName="x" from="0" to="295.6756756756757" dur="0.6s" fill="freeze" begin="0.2"></animate></text><text x="0" y="71" dy="0.35em" dx="-4" style="stroke: #073642; stroke-width: 3px;">Go<animate attributeName="x" from="0" to="295.6756756756757" dur="0.6s" fill="freeze" begin="0.4"></animate></text><text x="0" y="91" dy="0.35em" dx="-4" style="stroke: #073642; stroke-width: 3px;">C#<animate attributeName="x" from="0" to="172.972972972973" dur="0.6s" fill="freeze" begin="0.6000000000000001"></animate></text><text x="0" y="111" dy="0.35em" dx="-4" style="stroke: #073642; stroke-width: 3px;">C++<animate attributeName="x" from="0" to="99.35135135135135" dur="0.6s" fill="freeze" begin="0.8"></animate></text><text x="0" y="131" dy="0.35em" dx="-4" style="stroke: #073642; stroke-width: 3px;">Lua<animate attributeName="x" from="0" to="99.35135135135135" dur="0.6s" fill="freeze" begin="1"></animate></text></g><g fill="#839496" text-anchor="end" font-family="sans-serif" font-size="14"><text x="0" y="31" dy="0.35em" dx="-4">TypeScript<animate attributeName="x" from="0" to="492" dur="0.6s" fill="freeze" begin="0"></animate></text><text x="0" y="51" dy="0.35em" dx="-4">JavaScript<animate attributeName="x" from="0" to="295.6756756756757" dur="0.6s" fill="freeze" begin="0.2"></animate></text><text x="0" y="71" dy="0.35em" dx="-4">Go<animate attributeName="x" from="0" to="295.6756756756757" dur="0.6s" fill="freeze" begin="0.4"></animate></text><text x="0" y="91" dy="0.35em" dx="-4">C#<animate attributeName="x" from="0" to="172.972972972973" dur="0.6s" fill="freeze" begin="0.6000000000000001"></animate></text><text x="0" y="111" dy="0.35em" dx="-4">C++<animate attributeName="x" from="0" to="99.35135135135135" dur="0.6s" fill="freeze" begin="0.8"></animate></text><text x="0" y="131" dy="0.35em" dx="-4">Lua<animate attributeName="x" from="0" to="99.35135135135135" dur="0.6s" fill="freeze" begin="1"></animate></text></g><g transform="translate(38,0)" color="#839496" fill="none" font-size="10" font-family="sans-serif" text-anchor="end"><path class="domain" stroke="currentColor" d="M0.5,20.5V142.5"></path><g class="tick" opacity="1" transform="translate(0,31.5)"><line stroke="currentColor" x2="0"></line><text fill="currentColor" x="-3" dy="0.32em">37%</text></g><g class="tick" opacity="1" transform="translate(0,51.5)"><line stroke="currentColor" x2="0"></line><text fill="currentColor" x="-3" dy="0.32em">21%</text></g><g class="tick" opacity="1" transform="translate(0,71.5)"><line stroke="currentColor" x2="0"></line><text fill="currentColor" x="-3" dy="0.32em">21%</text></g><g class="tick" opacity="1" transform="translate(0,91.5)"><line stroke="currentColor" x2="0"></line><text fill="currentColor" x="-3" dy="0.32em">11%</text></g><g class="tick" opacity="1" transform="translate(0,111.5)"><line stroke="currentColor" x2="0"></line><text fill="currentColor" x="-3" dy="0.32em">5%</text></g><g class="tick" opacity="1" transform="translate(0,131.5)"><line stroke="currentColor" x2="0"></line><text fill="currentColor" x="-3" dy="0.32em">5%</text></g></g><g transform="translate(512 , 20)"><g transform="scale(4)" style="fill: #b58900;"><path fill-rule="evenodd" d="M3 2.75A2.75 2.75 0 015.75 0h14.5a.75.75 0 01.75.75v20.5a.75.75 0 01-.75.75h-6a.75.75 0 010-1.5h5.25v-4H6A1.5 1.5 0 004.5 18v.75c0 .716.43 1.334 1.05 1.605a.75.75 0 01-.6 1.374A3.25 3.25 0 013 18.75v-16zM19.5 1.5V15H6c-.546 0-1.059.146-1.5.401V2.75c0-.69.56-1.25 1.25-1.25H19.5z"></path><path d="M7 18.25a.25.25 0 01.25-.25h5a.25.25 0 01.25.25v5.01a.25.25 0 01-.397.201l-2.206-1.604a.25.25 0 00-.294 0L7.397 23.46a.25.25 0 01-.397-.2v-5.01z"></path></g></g></g></svg>