<svg xmlns="http://www.w3.org/2000/svg" width="638" height="210" viewBox="0 0 638 210"><style>* {
          font-family: Ubuntu, 'Lucida Grande', Arial, Helvetica, sans-serif
        }</style><rect x="1.5" y="1.5" rx="5" ry="5" height="98%" width="98%" stroke="#e4e2e2" stroke-width="1" fill="#ffffff" stroke-opacity="1"></rect><text x="30" y="40" style="font-size: 26px; fill: #41b883;">Repo Composed</text><g transform="translate(0,40)"><g><rect fill="#00ADD8" x="38" y="22" width="454" height="18"></rect><rect fill="#f1e05a" x="38" y="42" width="336.8387096774194" height="18"></rect><rect fill="#178600" x="38" y="62" width="219.67741935483872" height="18"></rect><rect fill="#f34b7d" x="38" y="82" width="219.67741935483872" height="18"></rect><rect fill="#000080" x="38" y="102" width="117.16129032258064" height="18"></rect><rect fill="#2b7489" x="38" y="122" width="117.16129032258064" height="18"></rect></g><g text-anchor="end" font-family="sans-serif" font-size="14"><text x="492" y="31" dy="0.35em" dx="-4" style="stroke: #ffffff; stroke-width: 3px;">Go</text><text x="374.8387096774194" y="51" dy="0.35em" dx="-4" style="stroke: #ffffff; stroke-width: 3px;">JavaScript</text><text x="257.6774193548387" y="71" dy="0.35em" dx="-4" style="stroke: #ffffff; stroke-width: 3px;">C#</text><text x="257.6774193548387" y="91" dy="0.35em" dx="-4" style="stroke: #ffffff; stroke-width: 3px;">C++</text><text x="155.16129032258064" y="111" dy="0.35em" dx="-4" style="stroke: #ffffff; stroke-width: 3px;">Lua</text><text x="155.16129032258064" y="131" dy="0.35em" dx="-4" style="stroke: #ffffff; stroke-width: 3px;">TypeScript</text></g><g fill="#000000" text-anchor="end" font-family="sans-serif" font-size="14"><text x="492" y="31" dy="0.35em" dx="-4">Go</text><text x="374.8387096774194" y="51" dy="0.35em" dx="-4">JavaScript</text><text x="257.6774193548387" y="71" dy="0.35em" dx="-4">C#</text><text x="257.6774193548387" y="91" dy="0.35em" dx="-4">C++</text><text x="155.16129032258064" y="111" dy="0.35em" dx="-4">Lua</text><text x="155.16129032258064" y="131" dy="0.35em" dx="-4">TypeScript</text></g><g transform="translate(38,0)" color="#000000" fill="none" font-size="10" font-family="sans-serif" text-anchor="end"><path class="domain" stroke="currentColor" d="M0.5,20.5V142.5"></path><g class="tick" opacity="1" transform="translate(0,31.5)"><line stroke="currentColor" x2="0"></line><text fill="currentColor" x="-3" dy="0.32em">31%</text></g><g class="tick" opacity="1" transform="translate(0,51.5)"><line stroke="currentColor" x2="0"></line><text fill="currentColor" x="-3" dy="0.32em">23%</text></g><g class="tick" opacity="1" transform="translate(0,71.5)"><line stroke="currentColor" x2="0"></line><text fill="currentColor" x="-3" dy="0.32em">15%</text></g><g class="tick" opacity="1" transform="translate(0,91.5)"><line stroke="currentColor" x2="0"></line><text fill="currentColor" x="-3" dy="0.32em">15%</text></g><g class="tick" opacity="1" transform="translate(0,111.5)"><line stroke="currentColor" x2="0"></line><text fill="currentColor" x="-3" dy="0.32em">8%</text></g><g class="tick" opacity="1" transform="translate(0,131.5)"><line stroke="currentColor" x2="0"></line><text fill="currentColor" x="-3" dy="0.32em">8%</text></g></g><g transform="translate(512 , 20)"><g transform="scale(4)" style="fill: #41b883;"><path fill-rule="evenodd" d="M3 2.75A2.75 2.75 0 015.75 0h14.5a.75.75 0 01.75.75v20.5a.75.75 0 01-.75.75h-6a.75.75 0 010-1.5h5.25v-4H6A1.5 1.5 0 004.5 18v.75c0 .716.43 1.334 1.05 1.605a.75.75 0 01-.6 1.374A3.25 3.25 0 013 18.75v-16zM19.5 1.5V15H6c-.546 0-1.059.146-1.5.401V2.75c0-.69.56-1.25 1.25-1.25H19.5z"></path><path d="M7 18.25a.25.25 0 01.25-.25h5a.25.25 0 01.25.25v5.01a.25.25 0 01-.397.201l-2.206-1.604a.25.25 0 00-.294 0L7.397 23.46a.25.25 0 01-.397-.2v-5.01z"></path></g></g></g></svg>