<svg xmlns="http://www.w3.org/2000/svg" width="340" height="198" viewBox="0 0 340 198"><style>* {
          font-family: Ubuntu, 'Lucida Grande', Arial, Helvetica, sans-serif
        }</style><rect x="1.5" y="1.5" rx="5" ry="5" height="98%" width="98%" stroke="#e4e2e2" stroke-width="1" fill="#ffffff" stroke-opacity="1"></rect><text x="30" y="40" style="font-size: 26px; fill: #0366d6;">Overview</text><g transform="translate(0,40)"><g transform="translate(30,20)"><g transform="translate(0, 0)"><g transform="translate(0, 2) scale(1)" style="fill: #586069;"><path fill-rule="evenodd" d="M8 .25a.75.75 0 01.673.418l1.882 3.815 4.21.612a.75.75 0 01.416 1.279l-3.046 2.97.719 4.192a.75.75 0 01-1.088.791L8 12.347l-3.766 1.98a.75.75 0 01-1.088-.79l.72-4.194L.818 6.374a.75.75 0 01.416-1.28l4.21-.611L7.327.668A.75.75 0 018 .25zm0 2.445L6.615 5.5a.75.75 0 01-.564.41l-3.097.45 2.24 2.184a.75.75 0 01.216.664l-.528 3.084 2.769-1.456a.75.75 0 01.698 0l2.77 1.456-.53-3.084a.75.75 0 01.216-.664l2.24-2.183-3.096-.45a.75.75 0 01-.564-.41L8 2.694v.001z"></path></g><text x="26" y="14" style="fill: #586069; font-size: 16px;">Total Stars</text><text x="280" y="14" text-anchor="end" style="fill: #0366d6; font-size: 16px; font-weight: bold;">12</text></g><g transform="translate(0, 28)"><g transform="translate(0, 2) scale(1)" style="fill: #586069;"><path fill-rule="evenodd" d="M3 2.75A2.75 2.75 0 015.75 0h14.5a.75.75 0 01.75.75v20.5a.75.75 0 01-.75.75h-6a.75.75 0 010-1.5h5.25v-4H6A1.5 1.5 0 004.5 18v.75c0 .716.43 1.334 1.05 1.605a.75.75 0 01-.6 1.374A3.25 3.25 0 013 18.75v-16zM19.5 1.5V15H6c-.546 0-1.059.146-1.5.401V2.75c0-.69.56-1.25 1.25-1.25H19.5z"></path><path d="M7 18.25a.25.25 0 01.25-.25h5a.25.25 0 01.25.25v5.01a.25.25 0 01-.397.201l-2.206-1.604a.25.25 0 00-.294 0L7.397 23.46a.25.25 0 01-.397-.2v-5.01z"></path></g><text x="26" y="14" style="fill: #586069; font-size: 16px;">Public Repos</text><text x="280" y="14" text-anchor="end" style="fill: #0366d6; font-size: 16px; font-weight: bold;">24</text></g><g transform="translate(0, 56)"><g transform="translate(0, 2) scale(1)" style="fill: #586069;"><path fill-rule="evenodd" d="M8 0C3.58 0 0 3.58 0 8c0 3.54 2.29 6.53 5.47 7.59.4.07.55-.17.55-.38 0-.19-.01-.82-.01-1.49-2.01.37-2.53-.49-2.69-.94-.09-.23-.48-.94-.82-1.13-.28-.15-.68-.52-.01-.53.63-.01 1.08.58 1.23.82.72 1.21 1.87.87 2.33.66.07-.52.28-.87.51-1.07-1.78-.2-3.64-.89-3.64-3.95 0-.87.31-1.59.82-2.15-.08-.2-.36-1.02.08-2.12 0 0 .67-.21 2.2.82.64-.18 1.32-.27 2-.27.68 0 1.36.09 2 .27 1.53-1.04 2.2-.82 2.2-.82.44 1.1.16 1.92.08 2.12.51.56.82 1.27.82 2.15 0 3.07-1.87 3.75-3.65 3.95.29.25.54.73.54 1.48 0 1.07-.01 1.93-.01 2.2 0 .21.15.46.55.38A8.013 8.013 0 0016 8c0-4.42-3.58-8-8-8z"></path></g><text x="26" y="14" style="fill: #586069; font-size: 16px;">Followers</text><text x="280" y="14" text-anchor="end" style="fill: #0366d6; font-size: 16px; font-weight: bold;">6</text></g><g transform="translate(0, 84)"><g transform="translate(0, 2) scale(1)" style="fill: #586069;"><path fill-rule="evenodd" d="M10.5 7.75a2.5 2.5 0 11-5 0 2.5 2.5 0 015 0zm1.43.75a4.002 4.002 0 01-7.86 0H.75a.75.75 0 110-1.5h3.32a4.001 4.001 0 017.86 0h3.32a.75.75 0 110 1.5h-3.32z"></path></g><text x="26" y="14" style="fill: #586069; font-size: 16px;">Commits (1y)</text><text x="280" y="14" text-anchor="end" style="fill: #0366d6; font-size: 16px; font-weight: bold;">228</text></g><g transform="translate(0, 112)"><g transform="translate(0, 2) scale(1)" style="fill: #586069;"><path fill-rule="evenodd" d="M7.177 3.073L9.573.677A.25.25 0 0110 .854v4.792a.25.25 0 01-.427.177L7.177 3.427a.25.25 0 010-.354zM3.75 2.5a.75.75 0 100 1.5.75.75 0 000-1.5zm-2.25.75a2.25 2.25 0 113 2.122v5.256a2.251 2.251 0 11-1.5 0V5.372A2.25 2.25 0 011.5 3.25zM11 2.5h-1V4h1a1 1 0 011 1v5.628a2.251 2.251 0 101.5 0V5A2.5 2.5 0 0011 2.5zm1 10.25a.75.75 0 111.5 0 .75.75 0 01-1.5 0zM3.75 12a.75.75 0 100 1.5.75.75 0 000-1.5z"></path></g><text x="26" y="14" style="fill: #586069; font-size: 16px;">Pull Requests</text><text x="280" y="14" text-anchor="end" style="fill: #0366d6; font-size: 16px; font-weight: bold;">25</text></g><g transform="translate(0, 140)"><g transform="translate(0, 2) scale(1)" style="fill: #586069;"><path fill-rule="evenodd" d="M8 1.5a6.5 6.5 0 100 13 6.5 6.5 0 000-13zM0 8a8 8 0 1116 0A8 8 0 010 8zm9 3a1 1 0 11-2 0 1 1 0 012 0zm-.25-6.25a.75.75 0 00-1.5 0v3.5a.75.75 0 001.5 0v-3.5z"></path></g><text x="26" y="14" style="fill: #586069; font-size: 16px;">Issues</text><text x="280" y="14" text-anchor="end" style="fill: #0366d6; font-size: 16px; font-weight: bold;">25</text></g></g></g></svg>